<svg width="100" height="81" viewBox="0 0 100 81" fill="none" xmlns="http://www.w3.org/2000/svg">
<path d="M15.4059 20.7305C15.4059 15.4261 17.5341 10.3391 21.3223 6.58833C25.1105 2.83761 30.2485 0.730469 35.6059 0.730469C40.9632 0.730469 46.1012 2.83761 49.8894 6.58833C53.6777 10.3391 55.8059 15.4261 55.8059 20.7305C55.8059 26.0348 53.6777 31.1219 49.8894 34.8726C46.1012 38.6233 40.9632 40.7305 35.6059 40.7305C30.2485 40.7305 25.1105 38.6233 21.3223 34.8726C17.5341 31.1219 15.4059 26.0348 15.4059 20.7305ZM0.255859 76.0898C0.255859 60.6992 12.8493 48.2305 28.3938 48.2305H42.8179C58.3624 48.2305 70.9559 60.6992 70.9559 76.0898C70.9559 78.6523 68.857 80.7305 66.2688 80.7305H4.94289C2.35477 80.7305 0.255859 78.6523 0.255859 76.0898ZM98.8887 28.3867L78.6887 48.3867C77.2052 49.8555 74.8065 49.8555 73.3388 48.3867L63.2388 38.3867C61.7554 36.918 61.7554 34.543 63.2388 33.0898C64.7223 31.6367 67.121 31.6211 68.5887 33.0898L76.0059 40.4336L93.523 23.0742C95.0065 21.6055 97.4052 21.6055 98.8729 23.0742C100.341 24.543 100.356 26.918 98.8729 28.3711L98.8887 28.3867Z" fill="#E0E0E0"/>
</svg>
