<svg width="102" height="80" viewBox="0 0 102 80" fill="none" xmlns="http://www.w3.org/2000/svg">
<path d="M15.8607 20C15.8607 14.6957 17.9916 9.60859 21.7846 5.85786C25.5777 2.10714 30.7222 0 36.0864 0C41.4506 0 46.595 2.10714 50.3881 5.85786C54.1812 9.60859 56.3121 14.6957 56.3121 20C56.3121 25.3043 54.1812 30.3914 50.3881 34.1421C46.595 37.8929 41.4506 40 36.0864 40C30.7222 40 25.5777 37.8929 21.7846 34.1421C17.9916 30.3914 15.8607 25.3043 15.8607 20ZM0.691406 75.3594C0.691406 59.9688 13.3009 47.5 28.8652 47.5H43.3076C58.8719 47.5 71.4813 59.9688 71.4813 75.3594C71.4813 77.9219 69.3798 80 66.7883 80H5.3844C2.79298 80 0.691406 77.9219 0.691406 75.3594ZM80.3301 48.75V38.75H70.2172C68.1157 38.75 66.4249 37.0781 66.4249 35C66.4249 32.9219 68.1157 31.25 70.2172 31.25H80.3301V21.25C80.3301 19.1719 82.0208 17.5 84.1224 17.5C86.224 17.5 87.9147 19.1719 87.9147 21.25V31.25H98.0276C100.129 31.25 101.82 32.9219 101.82 35C101.82 37.0781 100.129 38.75 98.0276 38.75H87.9147V48.75C87.9147 50.8281 86.224 52.5 84.1224 52.5C82.0208 52.5 80.3301 50.8281 80.3301 48.75Z" fill="#E0E0E0"/>
</svg>
