<svg width="48" height="47" viewBox="0 0 48 47" fill="none" xmlns="http://www.w3.org/2000/svg">
<path d="M27.5715 3.92836C27.5715 1.95292 25.9755 0.356934 24.0001 0.356934C22.0246 0.356934 20.4286 1.95292 20.4286 3.92836V19.9998H4.3572C2.38175 19.9998 0.785767 21.5958 0.785767 23.5712C0.785767 25.5467 2.38175 27.1426 4.3572 27.1426H20.4286V43.2141C20.4286 45.1895 22.0246 46.7855 24.0001 46.7855C25.9755 46.7855 27.5715 45.1895 27.5715 43.2141V27.1426H43.6429C45.6184 27.1426 47.2143 25.5467 47.2143 23.5712C47.2143 21.5958 45.6184 19.9998 43.6429 19.9998H27.5715V3.92836Z" fill="#051923"/>
</svg>
