<svg width="51" height="46" viewBox="0 0 51 46" fill="none" xmlns="http://www.w3.org/2000/svg">
<path d="M10.644 5.15373C10.644 4.04866 11.083 2.98885 11.8644 2.20745C12.6458 1.42605 13.7056 0.987061 14.8106 0.987061C15.9157 0.987061 16.9755 1.42605 17.7569 2.20745C18.5383 2.98885 18.9773 4.04866 18.9773 5.15373C18.9773 6.2588 18.5383 7.3186 17.7569 8.10001C16.9755 8.88141 15.9157 9.32039 14.8106 9.32039C13.7056 9.32039 12.6458 8.88141 11.8644 8.10001C11.083 7.3186 10.644 6.2588 10.644 5.15373ZM14.1162 31.5426V42.6537C14.1162 44.1902 12.8749 45.4315 11.3384 45.4315C9.80197 45.4315 8.56065 44.1902 8.56065 42.6537V23.2874L6.07801 27.4194C5.28808 28.7301 3.57801 29.1555 2.26725 28.3655C0.956482 27.5756 0.531135 25.8655 1.32107 24.5548L6.38183 16.1346C7.89225 13.6259 10.6006 12.0895 13.5259 12.0895H16.1041C19.0294 12.0895 21.7377 13.6259 23.2481 16.1346L27.1457 22.619C25.7481 24.1468 24.6631 25.961 23.9686 27.9575C23.8037 27.8013 23.6648 27.619 23.5433 27.4107L21.0606 23.2874V42.6537C21.0606 44.1902 19.8193 45.4315 18.2829 45.4315C16.7464 45.4315 15.5051 44.1902 15.5051 42.6537V31.5426H14.1162ZM38.4218 20.4315C41.737 20.4315 44.9164 21.7485 47.2606 24.0927C49.6048 26.4369 50.9218 29.6163 50.9218 32.9315C50.9218 36.2467 49.6048 39.4261 47.2606 41.7703C44.9164 44.1145 41.737 45.4315 38.4218 45.4315C35.1066 45.4315 31.9271 44.1145 29.5829 41.7703C27.2387 39.4261 25.9218 36.2467 25.9218 32.9315C25.9218 29.6163 27.2387 26.4369 29.5829 24.0927C31.9271 21.7485 35.1066 20.4315 38.4218 20.4315ZM39.8106 27.3759C39.8106 26.6121 39.1856 25.9871 38.4218 25.9871C37.6579 25.9871 37.0329 26.6121 37.0329 27.3759V31.5426H32.8662C32.1023 31.5426 31.4773 32.1676 31.4773 32.9315C31.4773 33.6954 32.1023 34.3204 32.8662 34.3204H37.0329V38.4871C37.0329 39.2509 37.6579 39.8759 38.4218 39.8759C39.1856 39.8759 39.8106 39.2509 39.8106 38.4871V34.3204H43.9773C44.7412 34.3204 45.3662 33.6954 45.3662 32.9315C45.3662 32.1676 44.7412 31.5426 43.9773 31.5426H39.8106V27.3759Z" fill="#051923"/>
</svg>
