<svg width="51" height="44" viewBox="0 0 51 44" fill="none" xmlns="http://www.w3.org/2000/svg">
<path d="M0.0227051 6.35498C0.0227051 2.90771 2.82544 0.10498 6.27271 0.10498H43.7727C47.22 0.10498 50.0227 2.90771 50.0227 6.35498V37.605C50.0227 41.0522 47.22 43.855 43.7727 43.855H6.27271C2.82544 43.855 0.0227051 41.0522 0.0227051 37.605V6.35498ZM6.27271 6.35498V12.605H12.5227V6.35498H6.27271ZM43.7727 6.35498H18.7727V12.605H43.7727V6.35498ZM6.27271 18.855V25.105H12.5227V18.855H6.27271ZM43.7727 18.855H18.7727V25.105H43.7727V18.855ZM6.27271 31.355V37.605H12.5227V31.355H6.27271ZM43.7727 31.355H18.7727V37.605H43.7727V31.355Z" fill="#051923"/>
</svg>
